<?xml version="1.0" encoding="utf-8"?>
<!-- Generator: Adobe Illustrator 22.0.1, SVG Export Plug-In . SVG Version: 6.00 Build 0)  -->
<svg version="1.1" xmlns="http://www.w3.org/2000/svg" xmlns:xlink="http://www.w3.org/1999/xlink" x="0px" y="0px"
	 viewBox="0 0 363.6 79.8" style="enable-background:new 0 0 363.6 79.8;" xml:space="preserve">
<style type="text/css">
	.st0{display:none;}
	.st1{display:inline;fill:url(#SVGID_1_);}
	.st2{clip-path:url(#SVGID_3_);fill:#FFFFFF;}
</style>
<g id="Layer_1" class="st0">
	
		<linearGradient id="SVGID_1_" gradientUnits="userSpaceOnUse" x1="-1805.5515" y1="39.6359" x2="2996.9182" y2="39.6359" gradientTransform="matrix(1 0 0 -1 0 80.2718)">
		<stop  offset="0" style="stop-color:#55BA47"/>
		<stop  offset="0.3057" style="stop-color:#55BA47"/>
		<stop  offset="0.4489" style="stop-color:#50B947"/>
		<stop  offset="0.63" style="stop-color:#40B749"/>
		<stop  offset="0.8306" style="stop-color:#26B34B"/>
		<stop  offset="0.998" style="stop-color:#0BAF4D"/>
		<stop  offset="1" style="stop-color:#0BAF4D"/>
	</linearGradient>
	<polygon class="st1" points="3150.8,-248.4 1984.8,-248.4 1984.8,-248.9 987.8,-248.9 -2066.2,-248.9 -2066.2,330.1 987.8,330.1 
		1984.8,330.1 1984.8,330.1 2933.1,330.1 3150.8,-46.8 	"/>
</g>
<g id="Layer_2">
	<g>
		<defs>
			<rect id="SVGID_2_" x="4" y="5" width="352" height="69"/>
		</defs>
		<clipPath id="SVGID_3_">
			<use xlink:href="#SVGID_2_"  style="overflow:visible;"/>
		</clipPath>
		<path class="st2" d="M60.6,54.1c0,6.7-4.8,11.9-12.1,11.9c0,0,0,0,0,0l-22.4,0V42.2h21.3C54.7,42.2,60.6,47.4,60.6,54.1
			 M58.2,23.5c0,6.2-5.4,11-12.2,11h-20v-21h20C52.8,13.5,58.2,17.3,58.2,23.5 M58.8,37.4l1.7-0.3C65.3,36.4,75,33.9,75,22.5
			C75,5.9,54.8,5.3,51.9,5.2H4.1l4.7,4.2l0,60.1L4,73.8c0,0,54.1,0,54.1,0c10.9,0,20.6-9.2,20.6-19.2C78.8,44.7,69.4,37.8,58.8,37.4
			 M338.7,39.6c0,14.7-10.1,26.6-22.5,26.6s-22.5-11.9-22.5-26.6s10.1-26.6,22.5-26.6S338.7,24.8,338.7,39.6 M356,39.5
			c0-19-17.8-34.5-39.8-34.5s-39.8,15.4-39.8,34.5c0,3.7,0.7,7.2,1.9,10.5c-4.2,9.5-13.8,16.2-25.1,16.2
			c-15.1,0-27.3-11.9-27.3-26.6S237,13,252.1,13c7.2,0,14.4,3.2,17.8,8.4l1.7,0v-9.9c-5.8-3.6-12.8-5.9-20.4-6.4c-0.1,0-0.3,0-0.4,0
			C250,5,249.1,5,248.3,5c0,0,0,0,0,0s0,0,0,0c-0.8,0-1.6,0-2.5,0.1c-0.1,0-0.3,0-0.4,0c-0.8,0-1.5,0.1-2.2,0.2c-0.1,0-0.1,0-0.2,0
			c-19.5,2.2-34.5,16.7-34.5,34.2c0,7.3,2.6,14,7,19.5l-10.9,5.9l-31,0l0-55.4l4.6-4.2h-26.4l4.6,4.2c0,0,0,44.7,0,48.7l-11.2,6.7
			l-41.5,0V42.2l21.8,0l5.4,3.5V31l-5.4,3.5h-21.8v-21l31.2,0l4.9,2.4h4l-8.3-10.7H81.8l4.6,4.2v60.1l-4.6,4.2H146l10.2-12.1v8
			l-2.4,4h52l11.4-12.1l-0.6-1.4c7.3,8.3,18.8,13.7,31.7,13.7c14.4,0,27-6.6,34-16.5c7,9.9,19.6,16.5,34,16.5
			C338.2,74,356,58.5,356,39.5"/>
	</g>
</g>
</svg>
